HIERARCHY
ROOT root
{
	OFFSET 0.000000 0.000000 0.000000
	CHANNELS 6 Xposition Yposition Zposition Zrotation Yrotation Xrotation
	JOINT lhip
	{
		OFFSET 0.058581 -0.082280 -0.017664
		CHANNELS 3 Zrotation Yrotation Xrotation
		JOINT lknee
		{
			OFFSET 0.043451 -0.386469 0.008037
			CHANNELS 3 Zrotation Yrotation Xrotation
			JOINT lankle
			{
				OFFSET -0.014790 -0.426874 -0.037428
				CHANNELS 3 Zrotation Yrotation Xrotation
				JOINT ltoe
				{
					OFFSET 0.041054 -0.060286 0.122042
					CHANNELS 3 Zrotation Yrotation Xrotation
					End Site
					{
						OFFSET 0.000000 0.000000 0.000000
					}
				}
			}
		}
	}
	JOINT rhip
	{
		OFFSET -0.060310 -0.090513 -0.013543
		CHANNELS 3 Zrotation Yrotation Xrotation
		JOINT rknee
		{
			OFFSET -0.043257 -0.383688 -0.004843
			CHANNELS 3 Zrotation Yrotation Xrotation
			JOINT rankle
			{
				OFFSET 0.019056 -0.420046 -0.034562
				CHANNELS 3 Zrotation Yrotation Xrotation
				JOINT rtoe
				{
					OFFSET -0.034840 -0.062106 0.130323
					CHANNELS 3 Zrotation Yrotation Xrotation
					End Site
					{
						OFFSET 0.000000 0.000000 0.000000
					}
				}
			}
		}
	}
	JOINT lowerback
	{
		OFFSET 0.004439 0.124404 -0.038385
		CHANNELS 3 Zrotation Yrotation Xrotation
		JOINT upperback
		{
			OFFSET 0.004488 0.137956 0.026820
			CHANNELS 3 Zrotation Yrotation Xrotation
			JOINT chest
			{
				OFFSET -0.002265 0.056032 0.002855
				CHANNELS 3 Zrotation Yrotation Xrotation
				JOINT lowerneck
				{
					OFFSET -0.013390 0.211636 -0.033468
					CHANNELS 3 Zrotation Yrotation Xrotation
					JOINT upperneck
					{
						OFFSET 0.010113 0.088937 0.050410
						CHANNELS 3 Zrotation Yrotation Xrotation
						End Site
						{
							OFFSET 0.000000 0.000000 0.000000
						}
					}
				}
				JOINT lclavicle
				{
					OFFSET 0.071702 0.114000 -0.018898
					CHANNELS 3 Zrotation Yrotation Xrotation
					JOINT lshoulder
					{
						OFFSET 0.122921 0.045205 -0.019046
						CHANNELS 3 Zrotation Yrotation Xrotation
						JOINT lelbow
						{
							OFFSET 0.255332 -0.015649 -0.022946
							CHANNELS 3 Zrotation Yrotation Xrotation
							JOINT lwrist
							{
								OFFSET 0.265709 0.012698 -0.007375
								CHANNELS 3 Zrotation Yrotation Xrotation
								End Site
								{
									OFFSET 0.000000 0.000000 0.000000
								}
							}
						}
					}
				}
				JOINT rclavicle
				{
					OFFSET -0.082954 0.112472 -0.023707
					CHANNELS 3 Zrotation Yrotation Xrotation
					JOINT rshoulder
					{
						OFFSET -0.113228 0.046853 -0.008472
						CHANNELS 3 Zrotation Yrotation Xrotation
						JOINT relbow
						{
							OFFSET -0.260127 -0.014369 -0.031269
							CHANNELS 3 Zrotation Yrotation Xrotation
							JOINT rwrist
							{
								OFFSET -0.269108 0.006794 -0.006027
								CHANNELS 3 Zrotation Yrotation Xrotation
								End Site
								{
									OFFSET 0.000000 0.000000 0.000000
								}
							}
						}
					}
				}
			}
		}
	}
}
MOTION
Frames: 10
Frame Time: 0.033333
2.009748 0.574224 0.865440 -95.566596 -1.231201 104.413304 -2.628192 -7.701317 -45.171326 -10.401669 17.386262 47.623044 17.128089 12.658987 -27.593430 0.000000 -0.000000 0.000000 -6.360927 -2.012882 -7.877827 1.768345 1.437249 73.799404 0.023290 -9.774614 1.154119 0.000000 -0.000000 0.000000 -0.893529 8.349789 26.642632 0.529952 0.687279 -4.400233 -0.014340 2.697683 0.521794 -1.136186 -3.805307 -27.359133 -0.367650 -0.690622 -3.597009 -28.941968 2.551551 0.377141 -50.445983 8.594626 12.529558 -1.489315 -77.027235 17.957109 15.904090 -12.270420 -20.083126 26.377691 7.348617 -0.952881 55.781292 4.476113 16.631605 -42.996821 59.144120 -35.179222 -5.422897 12.289659 -7.326234 
1.910735 0.572685 0.862052 -93.472441 -0.692274 103.365970 -5.549326 -9.829083 -37.127456 -9.982972 11.779047 49.369953 16.868962 15.419689 -33.409047 0.000000 -0.000000 0.000000 -7.035671 -0.058223 -20.538856 1.955680 -3.321645 85.060454 -0.044157 -8.941694 -5.457737 0.000000 -0.000000 0.000000 0.036919 5.383119 29.188815 0.360478 1.774055 -5.632642 -0.704568 1.729843 0.031060 -0.730755 -1.554391 -29.486591 -1.502418 -2.522153 -2.596374 -31.942569 0.238419 -0.960101 -49.675745 3.176912 15.244314 14.423553 -74.790178 0.217995 15.532964 -12.812747 -18.941934 30.257101 6.373557 0.190310 52.652795 0.982214 16.874370 -36.578047 53.760218 -31.017831 -7.636657 12.630344 -7.392669 
1.806496 0.571637 0.862408 -91.261542 0.631007 101.546685 -7.971969 -7.844598 -26.036919 -10.936751 4.814601 47.878433 15.120649 16.383021 -36.063182 0.000000 -0.000000 0.000000 -7.431988 0.205746 -32.195876 1.500029 -6.347258 90.183858 -0.803742 -8.807538 -10.547103 0.000000 -0.000000 0.000000 0.818700 1.431957 31.827520 0.171412 2.598060 -7.352755 -0.434729 0.771100 0.397690 -0.957208 0.074567 -30.860159 -1.507555 -2.527762 -2.268342 -31.769470 -0.518076 -1.370367 -51.813500 -0.529262 15.999115 35.626867 -78.686733 -20.009438 16.064728 -12.942625 -20.677425 31.328822 4.901294 1.153147 51.526208 -2.695495 15.695925 -32.343414 52.584370 -26.687656 -8.866806 13.372961 -5.529426 
1.670012 0.569596 0.871276 -86.815846 3.207636 100.596284 -7.186314 -3.343744 -11.592443 -12.158462 -5.903346 42.486013 10.582331 14.214411 -34.269450 0.000000 -0.000000 0.000000 -8.305081 -1.143556 -44.763178 -0.812814 -10.696929 86.916147 -0.711714 -8.259103 -15.751372 0.000000 -0.000000 0.000000 2.139773 -5.047588 32.123051 1.226955 2.684010 -8.398850 0.539685 -0.581955 0.926902 -1.723435 2.422019 -30.882481 -1.650035 -0.946951 -2.690948 -29.198364 1.702421 -1.239184 -55.505227 -3.853182 16.774582 130.809108 -81.288448 -112.327906 16.993012 -12.377055 -28.347515 30.010268 0.325029 1.494991 50.397255 -7.258827 14.193259 -29.126890 58.408432 -21.446556 -10.049857 14.235015 -6.782819 
1.584535 0.566984 0.881465 -84.234864 4.777745 100.944921 -5.072042 -1.934649 -3.647307 -12.185538 -11.757647 37.883392 6.200408 12.495426 -29.367771 0.000000 -0.000000 0.000000 -9.506697 -2.135278 -50.193230 -1.758344 -13.664383 80.075461 0.975477 -7.626414 -17.629611 0.000000 -0.000000 0.000000 3.252562 -8.431731 30.412692 2.270944 2.790548 -8.016028 0.948331 -1.506781 1.007884 -2.046912 4.262742 -30.477229 -2.332721 -0.377543 -2.695807 -27.838535 3.670065 -1.078117 -56.171143 -6.012303 17.665306 160.923472 -74.210344 -140.071545 17.001258 -12.963898 -31.642669 29.202831 -3.377335 1.349052 48.699668 -9.832466 13.598156 -28.363799 63.182990 -18.522476 -10.689610 15.177732 -7.874546 
1.465948 0.561555 0.898824 -82.317654 6.561061 101.504187 -2.222397 -1.069196 6.178905 -10.273652 -16.664840 30.426767 -0.800823 10.726803 -16.955900 0.000000 -0.000000 0.000000 -11.253171 -2.372358 -54.029133 -1.946864 -16.731092 66.464969 5.090474 -6.056511 -16.412716 0.000000 -0.000000 0.000000 4.674422 -11.513731 27.102945 3.350926 3.301605 -6.464843 1.323961 -2.312507 0.602112 -2.370129 6.578388 -29.376515 -3.171946 -0.173521 -2.375001 -26.105706 5.804187 -0.670854 -56.014559 -8.562545 18.883832 172.016756 -64.709190 -148.138494 16.658792 -14.215249 -32.894292 28.037172 -7.715827 1.635667 46.922662 -12.968387 12.401883 -29.890316 67.681849 -17.923509 -11.468217 16.233442 -9.172226 
1.343082 0.554657 0.914032 -81.602304 7.897936 101.620423 -0.061147 -0.107461 14.945864 -6.458326 -18.304981 22.294665 -6.092258 10.057531 0.359148 0.000000 -0.000000 0.000000 -12.528305 -1.500832 -54.554162 -1.440355 -17.759907 50.751406 10.244079 -4.615336 -8.846509 0.000000 -0.000000 0.000000 5.799296 -13.263907 23.440200 3.839456 3.413965 -4.013992 2.103399 -2.518521 -0.431387 -2.984773 7.000638 -26.873002 -2.899635 1.210614 -3.005891 -24.217261 7.140678 0.156912 -55.932687 -9.814910 19.353176 175.674780 -57.431347 -150.563952 16.598355 -15.116969 -33.707748 25.877130 -10.256362 3.342832 47.128235 -15.426941 10.387484 -35.141842 69.773306 -23.764797 -11.779035 16.690980 -9.153706 
1.219384 0.546827 0.919981 -80.619721 8.506920 101.627429 0.612228 -0.260813 20.986693 -3.480002 -18.669325 19.069421 -6.008909 10.896176 7.664791 0.000000 -0.000000 0.000000 -13.973122 -0.906745 -52.961460 -1.061465 -18.118060 36.597289 15.508067 -5.373642 1.518816 0.000000 -0.000000 0.000000 6.745248 -13.899966 19.662078 3.968794 2.365691 -2.072926 3.161467 -2.672820 -0.986585 -4.020463 5.404410 -23.138602 -2.372912 4.619117 -4.812830 -22.116627 8.036915 1.263293 -56.162988 -10.271284 18.843743 177.634339 -53.678326 -152.116972 17.116993 -15.728671 -34.110839 22.965472 -11.578000 5.243366 48.233704 -16.728485 9.277184 -44.062224 70.581242 -33.087619 -11.057487 17.036680 -7.432040 
1.097174 0.538704 0.915422 -78.459410 8.650259 101.242394 0.724686 -1.266603 22.833638 -3.211221 -18.751236 26.346364 -4.703831 11.455867 3.129209 0.000000 -0.000000 0.000000 -15.102123 -1.504499 -49.661505 -1.229570 -18.371485 27.417585 19.584210 -6.752268 7.388243 0.000000 -0.000000 0.000000 7.625713 -14.027504 16.944530 4.388338 0.818449 -1.137697 3.513015 -3.081796 -0.878632 -5.019077 4.916400 -20.632564 -3.328794 7.875811 -5.096490 -20.764284 8.616773 1.920799 -55.835604 -10.273820 17.762659 178.727456 -54.797343 -152.638072 16.718142 -16.691002 -32.714605 21.042848 -12.877575 5.070171 47.234017 -16.889685 9.144170 -51.363333 71.909741 -39.354948 -8.929234 17.449581 -6.144154 
0.947837 0.529486 0.898170 -75.015032 9.113297 99.295287 1.805509 -1.535826 21.189607 -6.848651 -19.850761 45.856312 -4.441093 10.046000 -1.884908 0.000000 -0.000000 0.000000 -14.933775 -2.767663 -44.432694 -1.342405 -14.058986 27.813111 14.474259 -6.999362 5.234102 0.000000 -0.000000 0.000000 8.563817 -14.100114 16.969301 5.296372 0.047807 -1.395140 3.035829 -3.621570 -0.781450 -6.083225 5.272696 -19.266129 -5.080203 11.088026 -3.374338 -21.868908 7.982452 1.998293 -53.977457 -8.898592 15.551755 179.402820 -62.636019 -153.488867 15.093181 -16.725494 -29.848685 21.325931 -12.788446 2.861773 42.695260 -16.182198 8.263450 -56.642642 73.538152 -43.849196 -5.762292 17.681490 -4.718303 
